<svg width="20" height="24" viewBox="0 0 20 24" fill="none" xmlns="http://www.w3.org/2000/svg">
<path d="M15.9019 7.54178L15.9019 7.54181L15.907 7.54604C16.3412 7.90511 17.1182 8.54879 17.7391 9.26387C18.0499 9.62178 18.3038 9.97783 18.4575 10.3068C18.6124 10.6386 18.6405 10.8879 18.5901 11.0699C18.5505 11.2046 18.4508 11.3198 18.2476 11.4353C18.0718 11.5351 17.876 11.6052 17.6527 11.6851C17.5989 11.7043 17.5436 11.7241 17.4865 11.745C16.3 12.1752 15.08 12.5156 13.8404 12.7664L13.8401 12.7664C13.3037 12.8752 12.5936 13.0159 12.0722 12.9433C11.8173 12.9078 11.7023 12.8329 11.6539 12.7713C11.6164 12.7234 11.5431 12.5864 11.6253 12.2188C11.6839 11.9616 11.8228 11.7016 12.021 11.4271C12.1827 11.2031 12.3645 10.9944 12.5537 10.7774C12.5997 10.7245 12.6462 10.6712 12.693 10.617L12.693 10.617L12.6952 10.6143C12.7675 10.5294 12.8396 10.4444 12.9116 10.3595C13.7671 9.35069 14.6121 8.35436 15.5891 7.56544L15.6798 7.57907L15.8073 7.52685C15.8301 7.51753 15.8469 7.51681 15.8568 7.51806C15.8616 7.51868 15.8669 7.51999 15.873 7.52272C15.8791 7.52543 15.8889 7.53078 15.9019 7.54178Z" stroke="#F6F3EC"/>
<path d="M13.635 18.938L13.635 18.938C14.1015 19.7835 14.5858 20.6378 15.2391 21.1792C15.2403 21.1786 15.2414 21.178 15.2426 21.1774L15.3484 21.0715H15.5555C15.5595 21.0715 15.5633 21.0716 15.567 21.0716C16.1028 20.9769 16.7499 20.5901 17.3139 20.0289C17.8884 19.4572 18.2946 18.786 18.4017 18.2363C18.4496 17.9836 18.3849 17.7956 18.2327 17.6187C18.0624 17.4208 17.7785 17.237 17.4 17.0691C17.0276 16.904 16.6062 16.7723 16.1965 16.6557C16.0866 16.6245 15.9749 16.5936 15.8646 16.5632C15.5834 16.4856 15.3119 16.4107 15.1061 16.3384C15.1058 16.3383 15.1055 16.3382 15.1052 16.3381L15.2709 15.8664L13.635 18.938ZM13.635 18.938L13.6335 18.9353M13.635 18.938L13.6335 18.9353M13.6335 18.9353C13.5462 18.7793 13.4555 18.6239 13.3638 18.4666M13.6335 18.9353L13.3638 18.4666M13.3638 18.4666C13.1994 18.1847 13.0315 17.8969 12.8732 17.589M13.3638 18.4666L12.8732 17.589M12.8732 17.589C12.6304 17.1169 12.4545 16.6769 12.4055 16.2949L12.8732 17.589Z" stroke="#F6F3EC"/>
<path d="M7.34243 23.6836C7.36168 23.6884 7.38104 23.698 7.4003 23.7077C8.0032 23.8957 9.12683 24.1996 9.71037 23.8138C10.134 23.5328 10.1624 23.0233 10.188 22.5629C10.191 22.5097 10.1939 22.457 10.1974 22.4055C10.2891 21.1806 10.3277 19.946 10.3421 18.7162L7.34243 23.6836ZM7.34243 23.6836C6.07413 23.4618 4.52605 22.8783 4.37653 21.7063C4.36201 21.5713 4.41515 21.4508 4.49711 21.3591M7.34243 23.6836L4.49711 21.3591M4.49711 21.3591C4.53573 21.2867 4.57424 21.2193 4.61769 21.1566C4.79215 20.9151 4.99139 20.6985 5.19253 20.4798C5.20829 20.4627 5.22407 20.4455 5.23985 20.4284M4.49711 21.3591L5.23985 20.4284M5.23985 20.4284C5.60633 19.8834 6.00184 19.3578 6.42135 18.8513L5.23985 20.4284ZM8.8787 17.0757L8.87943 17.0754C9.18917 16.947 9.34457 16.9716 9.41217 16.9975C9.47885 17.023 9.55936 17.0876 9.6379 17.2542C9.80795 17.6149 9.84697 18.1915 9.84213 18.711C9.82778 19.9345 9.7894 21.1575 9.69882 22.3682L9.69881 22.3682L9.69858 22.3716C9.69402 22.4386 9.69047 22.5011 9.68711 22.5602C9.67603 22.7552 9.6671 22.9122 9.63153 23.0649C9.59085 23.2393 9.52913 23.3339 9.43429 23.3969C9.29936 23.4859 9.02885 23.528 8.62187 23.4794C8.25471 23.4356 7.87472 23.3309 7.58417 23.2412C7.55446 23.2278 7.51166 23.2106 7.46433 23.1987L7.44658 23.1942L7.42856 23.1911C6.82514 23.0855 6.18254 22.8977 5.68665 22.6164C5.20326 22.3421 4.93844 22.0279 4.87849 21.6827L4.90994 21.6476L4.93827 21.5944C4.97224 21.5308 4.99959 21.4838 5.02612 21.4451C5.18181 21.2302 5.36078 21.0356 5.56518 20.8133C5.57936 20.7978 5.59366 20.7823 5.60809 20.7666L5.63366 20.7387L5.65475 20.7074C6.01137 20.1771 6.39682 19.6647 6.80639 19.1703C6.9362 19.0137 7.05965 18.8563 7.18373 18.6982C7.38239 18.4449 7.58266 18.1896 7.81321 17.9321C8.17678 17.5261 8.52999 17.2196 8.8787 17.0757Z" stroke="#F6F3EC"/>
<path d="M9.3024 11.0092L9.28642 10.9992L9.25926 10.968L9.22721 10.9417C7.06266 9.1622 4.94769 6.3953 3.86192 3.85413L3.8617 3.85363C3.68846 3.44941 3.67911 3.11562 3.75632 2.8319C3.83575 2.54 4.01865 2.25911 4.29642 1.99148C4.86144 1.44705 5.73845 1.03481 6.54818 0.768786L6.54841 0.76871C7.65604 0.404216 8.24137 0.451827 8.56955 0.667168C8.89881 0.883209 9.16377 1.39493 9.27519 2.50331C9.46159 4.4292 9.54761 6.36962 9.53322 8.30527L9.53321 8.30605C9.53198 8.51518 9.54466 8.75102 9.55703 8.98132C9.55794 8.99826 9.55885 9.01516 9.55975 9.03203C9.57328 9.28519 9.58585 9.5384 9.58444 9.7861C9.5815 10.3024 9.51539 10.6931 9.35826 10.9352L9.30759 11.0132L9.3024 11.0092Z" stroke="#F6F3EC"/>
<path d="M8.18076 14.2693L8.18042 14.2678C8.17755 14.2549 8.17456 14.2468 8.17271 14.2425L8.10101 14.202L8.04211 14.1308C7.36901 13.3167 6.38376 12.7049 5.39118 12.1335C5.24469 12.0497 5.09827 11.961 4.94899 11.8705C4.67622 11.7051 4.39393 11.534 4.08431 11.3772C3.6093 11.1368 3.20306 11.0054 2.8927 11.0266C2.31499 11.0692 1.89171 11.5884 1.63112 12.539C1.38203 13.4477 1.35741 14.517 1.40736 15.1466C1.40737 15.1467 1.40738 15.1468 1.40739 15.1469L8.18076 14.2693ZM8.18076 14.2693C8.23538 14.5114 8.17872 14.6187 8.09581 14.7084M8.18076 14.2693L8.09581 14.7084M8.09581 14.7084C7.97374 14.8404 7.76064 14.9591 7.42534 15.1121M8.09581 14.7084L7.42534 15.1121M7.42534 15.1121C6.28691 15.6248 5.08703 16.0363 3.87515 16.3785C3.87476 16.3786 3.87437 16.3787 3.87399 16.3788L4.00985 16.86L7.42534 15.1121Z" stroke="#F6F3EC"/>
</svg>
